<mxfile host="65bd71144e">
    <diagram id="kUOsfqf2_otxLyGDg3ou" name="페이지-1">
        <mxGraphModel dx="1548" dy="1126" grid="1" gridSize="10" guides="1" tooltips="1" connect="1" arrows="1" fold="1" page="1" pageScale="1" pageWidth="1169" pageHeight="827" math="0" shadow="0">
            <root>
                <mxCell id="0"/>
                <mxCell id="1" parent="0"/>
                <mxCell id="45" value="" style="rounded=1;whiteSpace=wrap;html=1;fontColor=#E6E6E6;fillColor=#1A1A1A;arcSize=2;fillStyle=solid;strokeColor=#E6E6E6;" parent="1" vertex="1">
                    <mxGeometry x="260" y="118" width="650" height="345" as="geometry"/>
                </mxCell>
                <mxCell id="17" style="edgeStyle=none;html=1;entryX=0.5;entryY=0;entryDx=0;entryDy=0;fontColor=#E6E6E6;strokeColor=#E6E6E6;" parent="1" source="15" target="22" edge="1">
                    <mxGeometry relative="1" as="geometry">
                        <mxPoint x="335" y="220" as="targetPoint"/>
                    </mxGeometry>
                </mxCell>
                <mxCell id="15" value="게임 시작" style="rounded=1;whiteSpace=wrap;html=1;arcSize=50;fontColor=#E6E6E6;fillColor=none;strokeColor=#E6E6E6;" parent="1" vertex="1">
                    <mxGeometry x="280" y="140" width="110" height="40" as="geometry"/>
                </mxCell>
                <mxCell id="75" style="edgeStyle=none;html=1;entryX=0;entryY=0.5;entryDx=0;entryDy=0;" edge="1" parent="1" source="22" target="74">
                    <mxGeometry relative="1" as="geometry"/>
                </mxCell>
                <mxCell id="22" value="방&amp;nbsp;입장" style="rounded=1;whiteSpace=wrap;html=1;fontColor=#E6E6E6;fillColor=none;strokeColor=#E6E6E6;" parent="1" vertex="1">
                    <mxGeometry x="280" y="220" width="110" height="40" as="geometry"/>
                </mxCell>
                <mxCell id="24" value="YES" style="text;html=1;strokeColor=#006EAF;fillColor=none;align=center;verticalAlign=middle;whiteSpace=wrap;rounded=0;fontColor=#ffffff;" parent="1" vertex="1">
                    <mxGeometry x="555" y="386.5" width="50" height="20" as="geometry"/>
                </mxCell>
                <mxCell id="63" style="edgeStyle=none;html=1;entryX=0.5;entryY=0;entryDx=0;entryDy=0;" edge="1" parent="1" source="48" target="56">
                    <mxGeometry relative="1" as="geometry"/>
                </mxCell>
                <mxCell id="64" style="edgeStyle=none;html=1;entryX=0;entryY=0.5;entryDx=0;entryDy=0;" edge="1" parent="1" source="48" target="54">
                    <mxGeometry relative="1" as="geometry"/>
                </mxCell>
                <mxCell id="48" value="플레이어 or 경험치 상자&lt;br&gt;공격" style="rounded=1;whiteSpace=wrap;html=1;fontColor=#E6E6E6;fillColor=none;strokeColor=#E6E6E6;" vertex="1" parent="1">
                    <mxGeometry x="420" y="292.5" width="140" height="45" as="geometry"/>
                </mxCell>
                <mxCell id="65" style="edgeStyle=none;html=1;entryX=0.5;entryY=0;entryDx=0;entryDy=0;fillColor=#1ba1e2;strokeColor=#006EAF;" edge="1" parent="1" source="54" target="57">
                    <mxGeometry relative="1" as="geometry"/>
                </mxCell>
                <mxCell id="54" value="경험치 상자가 &lt;br&gt;파괴되었는가" style="rhombus;whiteSpace=wrap;html=1;fontColor=#E6E6E6;fillColor=none;strokeColor=#E6E6E6;" vertex="1" parent="1">
                    <mxGeometry x="610" y="280" width="130" height="70" as="geometry"/>
                </mxCell>
                <mxCell id="58" style="edgeStyle=none;html=1;entryX=0;entryY=0.5;entryDx=0;entryDy=0;fillColor=#1ba1e2;strokeColor=#006EAF;" edge="1" parent="1" source="56" target="57">
                    <mxGeometry relative="1" as="geometry"/>
                </mxCell>
                <mxCell id="56" value="상대방이&lt;br&gt;사망하였는가" style="rhombus;whiteSpace=wrap;html=1;fontColor=#E6E6E6;fillColor=none;strokeColor=#E6E6E6;" vertex="1" parent="1">
                    <mxGeometry x="425" y="372.5" width="130" height="70" as="geometry"/>
                </mxCell>
                <mxCell id="72" style="edgeStyle=none;html=1;entryX=0;entryY=0.5;entryDx=0;entryDy=0;" edge="1" parent="1" source="57" target="68">
                    <mxGeometry relative="1" as="geometry"/>
                </mxCell>
                <mxCell id="57" value="경험치 생성" style="rounded=1;whiteSpace=wrap;html=1;fontColor=#E6E6E6;fillColor=none;strokeColor=#E6E6E6;" vertex="1" parent="1">
                    <mxGeometry x="620" y="387.5" width="110" height="40" as="geometry"/>
                </mxCell>
                <mxCell id="60" value="YES" style="text;html=1;strokeColor=#006EAF;fillColor=none;align=center;verticalAlign=middle;whiteSpace=wrap;rounded=0;fontColor=#ffffff;" vertex="1" parent="1">
                    <mxGeometry x="675" y="350" width="50" height="20" as="geometry"/>
                </mxCell>
                <mxCell id="73" style="edgeStyle=none;html=1;entryX=0.5;entryY=1;entryDx=0;entryDy=0;" edge="1" parent="1" source="68" target="69">
                    <mxGeometry relative="1" as="geometry">
                        <mxPoint x="830" y="352.5" as="targetPoint"/>
                    </mxGeometry>
                </mxCell>
                <mxCell id="68" value="경험치 획득" style="rounded=1;whiteSpace=wrap;html=1;fontColor=#E6E6E6;fillColor=none;strokeColor=#E6E6E6;" vertex="1" parent="1">
                    <mxGeometry x="775" y="386.5" width="110" height="40" as="geometry"/>
                </mxCell>
                <mxCell id="77" style="edgeStyle=none;html=1;entryX=1;entryY=0.5;entryDx=0;entryDy=0;" edge="1" parent="1" source="69" target="74">
                    <mxGeometry relative="1" as="geometry">
                        <Array as="points">
                            <mxPoint x="830" y="240"/>
                        </Array>
                    </mxGeometry>
                </mxCell>
                <mxCell id="69" value="검 길이 증가" style="rounded=1;whiteSpace=wrap;html=1;fontColor=#E6E6E6;fillColor=none;strokeColor=#E6E6E6;" vertex="1" parent="1">
                    <mxGeometry x="775" y="295" width="110" height="40" as="geometry"/>
                </mxCell>
                <mxCell id="76" style="edgeStyle=none;html=1;entryX=0.5;entryY=0;entryDx=0;entryDy=0;" edge="1" parent="1" source="74" target="48">
                    <mxGeometry relative="1" as="geometry"/>
                </mxCell>
                <mxCell id="74" value="주변 탐색" style="rounded=1;whiteSpace=wrap;html=1;fontColor=#E6E6E6;fillColor=none;strokeColor=#E6E6E6;" vertex="1" parent="1">
                    <mxGeometry x="435" y="220" width="110" height="40" as="geometry"/>
                </mxCell>
            </root>
        </mxGraphModel>
    </diagram>
</mxfile>